<?xml version="1.0" encoding="UTF-8" standalone="no"?>
<!-- Created with Inkscape (http://www.inkscape.org/) -->

<svg
   width="210mm"
   height="297mm"
   viewBox="0 0 210 297"
   version="1.1"
   id="svg5"
   inkscape:version="1.1 (c68e22c387, 2021-05-23)"
   sodipodi:docname="rysunek-2.svg"
   xmlns:inkscape="http://www.inkscape.org/namespaces/inkscape"
   xmlns:sodipodi="http://sodipodi.sourceforge.net/DTD/sodipodi-0.dtd"
   xmlns="http://www.w3.org/2000/svg"
   xmlns:svg="http://www.w3.org/2000/svg">
  <sodipodi:namedview
     id="namedview7"
     pagecolor="#ffffff"
     bordercolor="#666666"
     borderopacity="1.0"
     inkscape:pageshadow="2"
     inkscape:pageopacity="0.0"
     inkscape:pagecheckerboard="0"
     inkscape:document-units="mm"
     showgrid="false"
     inkscape:zoom="0.70710678"
     inkscape:cx="255.97265"
     inkscape:cy="532.45141"
     inkscape:window-width="1920"
     inkscape:window-height="1017"
     inkscape:window-x="-8"
     inkscape:window-y="-8"
     inkscape:window-maximized="1"
     inkscape:current-layer="layer1" />
  <defs
     id="defs2">
    <filter
       y="-0.23926521"
       height="1.5621431"
       inkscape:menu-tooltip="Darkens the edge with an inner blur and adds a flexible glow"
       inkscape:menu="Shadows and Glows"
       inkscape:label="Drop Shadow"
       style="color-interpolation-filters:sRGB;"
       id="filter5424"
       x="-0.23782769"
       width="1.5447078">
      <feGaussianBlur
         stdDeviation="0.67733545"
         result="result6"
         id="feGaussianBlur5414" />
      <feComposite
         result="result8"
         in="SourceGraphic"
         operator="atop"
         in2="result6"
         id="feComposite5416" />
      <feComposite
         result="result9"
         operator="over"
         in2="SourceAlpha"
         in="result8"
         id="feComposite5418" />
      <feColorMatrix
         values="1 0 0 0 0 0 1 0 0 0 0 0 1 0 0 0 0 0 1 0 "
         result="result10"
         id="feColorMatrix5420" />
      <feBlend
         in="result10"
         mode="normal"
         in2="result6"
         id="feBlend5422"
         result="fbSourceGraphic" />
      <feColorMatrix
         result="fbSourceGraphicAlpha"
         in="fbSourceGraphic"
         values="0 0 0 -1 0 0 0 0 -1 0 0 0 0 -1 0 0 0 0 1 0"
         id="feColorMatrix6940" />
      <feFlood
         id="feFlood6942"
         flood-opacity="0.498039"
         flood-color="rgb(0,0,0)"
         result="flood"
         in="fbSourceGraphic" />
      <feComposite
         in2="fbSourceGraphic"
         id="feComposite6944"
         in="flood"
         operator="in"
         result="composite1" />
      <feGaussianBlur
         id="feGaussianBlur6946"
         in="composite1"
         stdDeviation="6.58683"
         result="blur" />
      <feOffset
         id="feOffset6948"
         dx="6"
         dy="6"
         result="offset" />
      <feComposite
         in2="offset"
         id="feComposite6950"
         in="fbSourceGraphic"
         operator="over"
         result="composite2" />
    </filter>
  </defs>
  <g
     inkscape:label="Warstwa 1"
     inkscape:groupmode="layer"
     id="layer1">
    <g
       id="g5382"
       style="filter:url(#filter5424);opacity:0.92531876">
      <g
         id="g4827">
        <path
           id="rect892"
           style="fill:#00ff00;stroke:#008000;stroke-width:3.18799;paint-order:stroke fill markers"
           d="M 81.670907,111.01803 H 121.0887 c 3.5179,0 6.35,2.8321 6.35,6.35 v 39.41779 c 0,3.5179 -2.8321,6.35 -6.35,6.35 H 81.670907 c -3.517899,0 -6.349999,-2.8321 -6.349999,-6.35 v -39.41779 c 0,-3.5179 2.8321,-6.35 6.349999,-6.35 z" />
        <path
           id="rect1254"
           style="fill:#ffffff;stroke:#008000;stroke-width:12.0491;paint-order:stroke fill markers"
           d="m 306.26367,419.5957 c -11.95916,0 -21.58594,10.704 -21.58594,24 v 147.63086 c 0,13.296 9.62678,24 21.58594,24 11.95916,0 21.58789,-10.704 21.58789,-24 V 465.0957 h 12.82227 l 9.3125,21.51953 c 1.26562,2.92457 2.44253,5.02038 4.7089,6.94724 2.57679,5.75122 8.58068,10.03323 14.72274,10.03323 h 28.63672 c 6.18412,0 11.50955,-3.98317 14.0664,-9.79882 1.61539,-1.68101 4.39401,-6.83996 5.3771,-9.11167 l 7.89829,-18.33755 h 12.82227 v 126.13086 c 0,13.296 9.62871,24 21.58789,24 11.95914,0 21.58594,-10.704 21.58594,-24 V 444.84766 c 0,-13.296 -9.6268,-24 -21.58594,-24 -1.41668,0 -2.79955,0.15454 -4.13867,0.4414 -0.71256,-0.0457 -1.43305,-0.0684 -2.16016,-0.0684 H 420.375 c -1.33576,0 -2.63801,0.10266 -3.92188,0.25196 -8.21607,-0.85996 -16.35143,3.46687 -20.07812,11.26562 -1.46423,2.14258 -2.50425,4.50266 -3.05273,7.00977 l -10.01563,23.14843 -10.55859,-24.40039 c -0.5485,-2.50709 -1.58852,-4.8672 -3.05274,-7.00976 -3.72669,-7.79875 -11.86206,-12.12561 -20.07812,-11.26563 -1.28388,-0.14944 -2.58609,-0.25195 -3.92188,-0.25195 H 312.5625 c -0.72711,0 -1.44758,0.0234 -2.16016,0.0684 -1.33911,-0.28692 -2.722,-0.44141 -4.13867,-0.44141 z"
           transform="scale(0.26458333)"
           sodipodi:nodetypes="sssssccccssccccssssscsscccccccsscs" />
      </g>
      <path
         id="rect892-1"
         style="fill:#00d400;stroke:#008000;stroke-width:2.23741;paint-order:stroke fill markers"
         d="m 131.50362,109.58496 20.51949,-20.692758 c 1.8313,-1.846756 3.30545,-0.653624 3.30527,2.675183 l -0.002,37.299025 c -1.8e-4,3.32881 -1.47461,7.49542 -3.3059,9.34217 l -20.51949,20.69276 c -1.83129,1.84676 -3.30544,0.65363 -3.30527,-2.67518 l 0.002,-37.29903 c 1.8e-4,-3.32881 1.47461,-7.49542 3.3059,-9.34217 z" />
      <path
         id="rect1254-1"
         style="fill:#ffffff;stroke:#008000;stroke-width:2.23741;paint-order:stroke fill markers"
         d="m 131.17117,109.92022 c -1.64717,1.66108 -2.97323,5.67806 -2.97341,9.00687 l -0.002,36.9611 c -1.8e-4,3.32881 1.3256,4.67156 2.97277,3.01048 1.64717,-1.66107 2.9735,-5.67833 2.97367,-9.00714 l 0.002,-31.57832 1.76605,-1.78096 1.28235,4.0942 c 0.17427,0.55641 0.33635,0.91766 0.64847,1.08528 0.35483,1.08198 1.18171,1.32012 2.02767,0.46701 l 3.94421,-3.97751 c 0.85176,-0.85895 1.58529,-2.59586 1.93753,-4.40701 0.22252,-0.64524 0.60529,-2.32278 0.74073,-3.02807 l 1.08809,-5.68806 1.76605,-1.78095 -0.002,31.57832 c -1.8e-4,3.32881 1.32587,4.67129 2.97304,3.01021 1.64716,-1.66107 2.97323,-5.67806 2.9734,-9.00687 l 0.002,-36.961095 c 1.8e-4,-3.328807 -1.3256,-4.671557 -2.97277,-3.010485 -0.19512,0.19677 -0.38559,0.427536 -0.57003,0.685352 -0.0981,0.08753 -0.19738,0.18192 -0.29753,0.282912 l -4.56346,4.602002 c -0.18398,0.185531 -0.36335,0.39211 -0.54018,0.607813 -1.13161,0.925875 -2.25217,3.139113 -2.76556,5.609241 -0.2017,0.7398 -0.34498,1.47512 -0.42055,2.17899 l -1.37979,7.1866 -1.45394,-4.64238 c -0.0755,-0.55149 -0.21872,-0.99792 -0.42037,-1.33096 -0.51318,-1.43488 -1.63363,-1.3882 -2.76526,-0.0317 -0.17683,0.14091 -0.35618,0.29612 -0.54017,0.48166 l -4.56346,4.602 c -0.10015,0.10099 -0.19938,0.20692 -0.29753,0.31716 -0.18444,0.11416 -0.3749,0.26756 -0.57002,0.46433 z"
         sodipodi:nodetypes="sssssccccssccccssssscsscccccccsscs" />
      <path
         id="rect892-0"
         style="fill:#44aa00;stroke:#008000;stroke-width:2.22546;paint-order:stroke fill markers"
         d="m 108.30961,85.620466 h 39.41779 c 3.5179,0 4.90245,1.380113 3.10436,3.094424 l -20.14742,19.20871 c -1.79808,1.71432 -6.07774,3.09443 -9.59564,3.09443 H 81.670907 c -3.517899,0 -4.902442,-1.38011 -3.104356,-3.09443 L 98.713969,88.71489 c 1.798091,-1.714311 6.077741,-3.094424 9.595641,-3.094424 z" />
      <path
         id="rect1254-3"
         style="fill:#ffffff;stroke:#008000;stroke-width:2.22546;paint-order:stroke fill markers"
         d="m 107.67097,85.620466 c -3.1642,0 -7.15884,1.380113 -8.956925,3.094424 l -19.964882,19.03468 c -1.798086,1.71432 -0.698558,3.09443 2.465637,3.09443 3.164194,0 7.159352,-1.38011 8.957439,-3.09443 L 107.22956,91.486978 h 3.39256 l -0.44626,2.774606 c -0.0606,0.377077 -0.0327,0.647299 0.30638,0.895737 -0.096,0.74153 0.91346,1.293628 2.53855,1.293628 h 7.5768 c 1.63621,0 3.5839,-0.513567 5.04688,-1.263404 0.65474,-0.21674 2.08758,-0.881906 2.65491,-1.174807 l 4.56964,-2.36434 h 3.39255 L 119.20425,107.911 c -1.79809,1.71431 -0.69805,3.09442 2.46615,3.09442 3.16419,0 7.15884,-1.38011 8.95692,-3.09442 l 19.96489,-19.034689 c 1.79808,-1.714311 0.69855,-3.094424 -2.46564,-3.094424 -0.37483,0 -0.76161,0.01993 -1.15472,0.05691 -0.18235,-0.0059 -0.36991,-0.0088 -0.56229,-0.0088 h -8.76639 c -0.35342,0 -0.71185,0.01324 -1.07174,0.03249 -2.05753,-0.110879 -4.79515,0.446998 -6.83584,1.452525 -0.67716,0.276252 -1.2715,0.580547 -1.75567,0.9038 l -5.78045,2.984627 0.50617,-3.146048 c 0.19392,-0.32325 0.23792,-0.627549 0.14026,-0.903799 0.0686,-1.005526 -1.4987,-1.563407 -3.78883,-1.452526 -0.31948,-0.01927 -0.65016,-0.03248 -1.00359,-0.03248 h -8.76639 c -0.19238,0 -0.38617,0.003 -0.58079,0.0088 -0.31551,-0.03699 -0.6605,-0.05691 -1.03533,-0.05691 z"
         sodipodi:nodetypes="sssssccccssccccssssscsscccccccsscs" />
    </g>
  </g>
</svg>
